<svg xmlns="http://www.w3.org/2000/svg" viewBox="0.00961624 0 47.48 35.26">
	<path d="M 5.3632812 0 C 3.476144 1.0783668 1.1915287 2.8704187 0.43945312 5.3261719 C 0.063415325 6.5540484 0.16541459 7.9836379 0.9765625 9.2753906 C 1.7877104 10.567143 3.2226013 11.720499 5.4296875 12.771484 C 7.4225913 13.720491 8.5256012 14.692146 9.0488281 15.525391 C 9.572055 16.358635 9.6016949 17.05405 9.3652344 17.826172 C 8.8923133 19.370416 6.9761419 21.078365 5.3632812 22 C 3.3917597 23.078337 1.0109805 24.891565 0.22851562 27.421875 C -0.16383814 28.690656 -0.0572675 30.170062 0.78125 31.523438 C 1.6197675 32.876815 3.1082137 34.10977 5.4121094 35.261719 L 6.3066406 33.474609 C 4.2105413 32.426559 3.0398657 31.371623 2.4804688 30.46875 C 1.9210714 29.565877 1.8893594 28.819891 2.1386719 28.013672 C 2.6372968 26.401234 4.6460303 24.668928 6.3378906 23.746094 L 6.3457031 23.742188 L 6.3554688 23.736328 C 8.2426045 22.658031 10.525275 20.865912 11.277344 18.410156 C 11.653378 17.182279 11.553331 15.752693 10.742188 14.460938 C 9.9310421 13.16918 8.4961387 12.015837 6.2890625 10.964844 C 4.2961487 10.015844 3.193149 9.0441765 2.6699219 8.2109375 C 2.1466948 7.3776985 2.1151003 6.6822766 2.3515625 5.9101562 C 2.8244869 4.3659156 4.742606 2.6579663 6.3554688 1.7363281 L 5.3632812 0 z M 23.363281 0 C 21.476144 1.0783668 19.191529 2.8704187 18.439453 5.3261719 C 18.063415 6.5540484 18.165415 7.9836379 18.976562 9.2753906 C 19.78771 10.567143 21.222601 11.720499 23.429688 12.771484 C 25.422601 13.720491 26.5256 14.692147 27.048828 15.525391 C 27.572056 16.358634 27.601697 17.05405 27.365234 17.826172 C 26.89231 19.370416 24.976143 21.078365 23.363281 22 C 21.391802 23.078305 19.010985 24.891586 18.228516 27.421875 C 17.836157 28.690655 17.942736 30.170061 18.78125 31.523438 C 19.619764 32.876816 21.108211 34.109769 23.412109 35.261719 L 24.306641 33.474609 C 22.210539 32.426559 21.039861 31.371622 20.480469 30.46875 C 19.921076 29.565878 19.889356 28.819892 20.138672 28.013672 C 20.637305 26.401231 22.646056 24.668929 24.337891 23.746094 L 24.345703 23.742188 L 24.355469 23.736328 C 26.242607 22.657964 28.525268 20.865912 29.277344 18.410156 C 29.653381 17.182278 29.553335 15.752693 28.742188 14.460938 C 27.931041 13.16918 26.49615 12.015837 24.289062 10.964844 C 22.296149 10.015844 21.193149 9.0441765 20.669922 8.2109375 C 20.146649 7.3778005 20.115101 6.6822766 20.351562 5.9101562 C 20.824488 4.3659156 22.742606 2.6579663 24.355469 1.7363281 L 23.363281 0 z M 41.363281 0 C 39.476144 1.0783668 37.191529 2.8704187 36.439453 5.3261719 C 36.063415 6.5540484 36.165416 7.9836379 36.976562 9.2753906 C 37.787712 10.567143 39.222603 11.720499 41.429688 12.771484 C 43.422601 13.720491 44.5256 14.692147 45.048828 15.525391 C 45.572056 16.358634 45.601697 17.05405 45.365234 17.826172 C 44.89231 19.370416 42.976143 21.078365 41.363281 22 C 39.391802 23.078305 37.010985 24.891586 36.228516 27.421875 C 35.836157 28.690655 35.942736 30.170061 36.78125 31.523438 C 37.619764 32.876816 39.108211 34.109769 41.412109 35.261719 L 42.306641 33.474609 C 40.210539 32.426559 39.039861 31.371622 38.480469 30.46875 C 37.921076 29.565878 37.889356 28.819892 38.138672 28.013672 C 38.637305 26.401231 40.646056 24.668929 42.337891 23.746094 L 42.345703 23.742188 L 42.355469 23.736328 C 44.242607 22.657964 46.525268 20.865912 47.277344 18.410156 C 47.653381 17.182278 47.553337 15.752693 46.742188 14.460938 C 45.931041 13.16918 44.49615 12.015837 42.289062 10.964844 C 40.296149 10.015844 39.193149 9.0441765 38.669922 8.2109375 C 38.146649 7.3778005 38.1151 6.6822766 38.351562 5.9101562 C 38.824487 4.3659156 40.742606 2.6579663 42.355469 1.7363281 L 41.363281 0 z " fill="#EA6EE2"/>
</svg>