<svg width="51" height="51" viewBox="0 0 51 51" fill="none" xmlns="http://www.w3.org/2000/svg">
<path d="M2.1914 1.33475C1.77304 1.4742 1.39453 1.89654 1.30687 2.32287C1.13554 3.14365 1.95632 3.96443 2.77711 3.7931C3.39468 3.6656 3.87281 3.03607 3.81304 2.4424C3.76921 2.02404 3.45445 1.59373 3.05601 1.3985C2.81296 1.28295 2.43843 1.25506 2.1914 1.33475Z" fill="#222222"/>
<path d="M7.2914 1.33475C6.68976 1.53397 6.28336 2.19538 6.40687 2.7771C6.50648 3.25124 6.94875 3.6935 7.4189 3.79311C8.19187 3.95647 8.99273 3.22733 8.91304 2.44241C8.86922 2.02405 8.55445 1.59374 8.15601 1.3985C7.91297 1.28295 7.53844 1.25506 7.2914 1.33475Z" fill="#222222"/>
<path d="M12.3914 1.33475C11.9731 1.4742 11.5945 1.89654 11.5069 2.32287C11.3356 3.14365 12.1563 3.96443 12.9771 3.7931C13.5947 3.6656 14.0728 3.03607 14.0131 2.4424C13.9692 2.02404 13.6545 1.59373 13.256 1.3985C13.013 1.28295 12.6384 1.25506 12.3914 1.33475Z" fill="#222222"/>
<path d="M17.4914 1.33475C17.073 1.4742 16.6945 1.89654 16.6069 2.32287C16.4355 3.14365 17.2563 3.96443 18.0771 3.7931C18.6947 3.6656 19.1728 3.03607 19.113 2.4424C19.0692 2.02404 18.7545 1.59373 18.356 1.3985C18.113 1.28295 17.7384 1.25506 17.4914 1.33475Z" fill="#222222"/>
<path d="M22.5914 1.33475C22.1731 1.4742 21.7945 1.89654 21.7069 2.32287C21.5356 3.14365 22.3563 3.96443 23.1771 3.7931C23.7947 3.6656 24.2728 3.03607 24.2131 2.4424C24.1692 2.02404 23.8545 1.59373 23.456 1.3985C23.213 1.28295 22.8384 1.25506 22.5914 1.33475Z" fill="#222222"/>
<path d="M27.6914 1.33475C27.273 1.4742 26.8945 1.89654 26.8069 2.32287C26.6355 3.14365 27.4563 3.96443 28.2771 3.7931C28.8947 3.6656 29.3728 3.03607 29.313 2.4424C29.2692 2.02404 28.9544 1.59373 28.556 1.3985C28.313 1.28295 27.9384 1.25506 27.6914 1.33475Z" fill="#222222"/>
<path d="M32.7914 1.33475C32.373 1.4742 31.9945 1.89654 31.9069 2.32287C31.7355 3.14365 32.5563 3.96443 33.3771 3.7931C33.9947 3.6656 34.4728 3.03607 34.413 2.4424C34.3692 2.02404 34.0545 1.59373 33.656 1.3985C33.413 1.28295 33.0384 1.25506 32.7914 1.33475Z" fill="#222222"/>
<path d="M37.8914 1.33475C37.4731 1.4742 37.0945 1.89654 37.0069 2.32287C36.8356 3.14365 37.6563 3.96443 38.4771 3.7931C39.0947 3.6656 39.5728 3.03607 39.5131 2.4424C39.4692 2.02404 39.1545 1.59373 38.756 1.3985C38.513 1.28295 38.1384 1.25506 37.8914 1.33475Z" fill="#222222"/>
<path d="M42.9914 1.33475C42.5731 1.4742 42.1945 1.89655 42.1069 2.32288C42.0073 2.78905 42.2344 3.29506 42.6727 3.59389C43.099 3.88874 43.5851 3.89272 44.0154 3.60585C44.7206 3.13569 44.8163 2.25913 44.2266 1.67342C43.8879 1.33077 43.4018 1.19928 42.9914 1.33475Z" fill="#222222"/>
<path d="M48.0914 1.33475C47.673 1.4742 47.2945 1.89655 47.2069 2.32288C47.1073 2.78905 47.3344 3.29506 47.7727 3.59389C48.199 3.88874 48.6851 3.89272 49.1154 3.60585C49.8206 3.13569 49.9162 2.25913 49.3266 1.67342C48.9879 1.33077 48.5018 1.19928 48.0914 1.33475Z" fill="#222222"/>
<path d="M2.1914 6.43478C1.77304 6.57424 1.39453 6.99658 1.30687 7.42291C1.13554 8.24369 1.95632 9.06447 2.77711 8.89314C3.39468 8.76564 3.87281 8.13611 3.81304 7.54244C3.76921 7.12408 3.45445 6.69377 3.05601 6.49853C2.81296 6.38299 2.43843 6.35509 2.1914 6.43478Z" fill="#222222"/>
<path d="M7.2914 6.43479C6.68976 6.63401 6.28336 7.29541 6.40687 7.87713C6.50648 8.35127 6.94875 8.79354 7.4189 8.89315C8.19187 9.05651 8.99273 8.32737 8.91304 7.54244C8.86922 7.12409 8.55445 6.69377 8.15601 6.49854C7.91297 6.38299 7.53844 6.3551 7.2914 6.43479Z" fill="#222222"/>
<path d="M12.3914 6.43478C11.9731 6.57424 11.5945 6.99658 11.5069 7.42291C11.3356 8.24369 12.1563 9.06447 12.9771 8.89314C13.5947 8.76564 14.0728 8.13611 14.0131 7.54244C13.9692 7.12408 13.6545 6.69377 13.256 6.49853C13.013 6.38299 12.6384 6.35509 12.3914 6.43478Z" fill="#222222"/>
<path d="M17.4914 6.43478C17.073 6.57424 16.6945 6.99658 16.6069 7.42291C16.4355 8.24369 17.2563 9.06447 18.0771 8.89314C18.6947 8.76564 19.1728 8.13611 19.113 7.54244C19.0692 7.12408 18.7545 6.69377 18.356 6.49853C18.113 6.38299 17.7384 6.35509 17.4914 6.43478Z" fill="#222222"/>
<path d="M22.5914 6.43478C22.1731 6.57424 21.7945 6.99658 21.7069 7.42291C21.5356 8.24369 22.3563 9.06447 23.1771 8.89314C23.7947 8.76564 24.2728 8.13611 24.2131 7.54244C24.1692 7.12408 23.8545 6.69377 23.456 6.49853C23.213 6.38299 22.8384 6.35509 22.5914 6.43478Z" fill="#222222"/>
<path d="M27.6914 6.43478C27.273 6.57424 26.8945 6.99658 26.8069 7.42291C26.6355 8.24369 27.4563 9.06447 28.2771 8.89314C28.8947 8.76564 29.3728 8.13611 29.313 7.54244C29.2692 7.12408 28.9544 6.69377 28.556 6.49853C28.313 6.38299 27.9384 6.35509 27.6914 6.43478Z" fill="#222222"/>
<path d="M32.7914 6.43478C32.373 6.57424 31.9945 6.99658 31.9069 7.42291C31.7355 8.24369 32.5563 9.06447 33.3771 8.89314C33.9947 8.76564 34.4728 8.13611 34.413 7.54244C34.3692 7.12408 34.0545 6.69377 33.656 6.49853C33.413 6.38299 33.0384 6.35509 32.7914 6.43478Z" fill="#222222"/>
<path d="M37.8914 6.43478C37.4731 6.57424 37.0945 6.99658 37.0069 7.42291C36.8356 8.24369 37.6563 9.06447 38.4771 8.89314C39.0947 8.76564 39.5728 8.13611 39.5131 7.54244C39.4692 7.12408 39.1545 6.69377 38.756 6.49853C38.513 6.38299 38.1384 6.35509 37.8914 6.43478Z" fill="#222222"/>
<path d="M42.9914 6.43479C42.5731 6.57424 42.1945 6.99658 42.1069 7.42291C42.0073 7.88908 42.2344 8.3951 42.6727 8.69393C43.099 8.98877 43.5851 8.99276 44.0154 8.70588C44.7206 8.23573 44.8163 7.35916 44.2266 6.77346C43.8879 6.4308 43.4018 6.29932 42.9914 6.43479Z" fill="#222222"/>
<path d="M48.0914 6.43479C47.673 6.57424 47.2945 6.99658 47.2069 7.42291C47.1073 7.88908 47.3344 8.3951 47.7727 8.69393C48.199 8.98877 48.6851 8.99276 49.1154 8.70588C49.8206 8.23573 49.9162 7.35916 49.3266 6.77346C48.9879 6.4308 48.5018 6.29932 48.0914 6.43479Z" fill="#222222"/>
<path d="M2.1914 11.5348C1.77304 11.6742 1.39453 12.0966 1.30687 12.5229C1.13554 13.3437 1.95632 14.1644 2.77711 13.9931C3.39468 13.8656 3.87281 13.2361 3.81304 12.6424C3.76921 12.2241 3.45445 11.7937 3.05601 11.5985C2.81296 11.483 2.43843 11.4551 2.1914 11.5348Z" fill="#222222"/>
<path d="M7.29141 11.5348C6.87305 11.6742 6.49453 12.0966 6.40688 12.5229C6.23555 13.3437 7.05633 14.1644 7.87711 13.9931C8.49469 13.8656 8.97281 13.2361 8.91305 12.6424C8.86922 12.2241 8.55446 11.7937 8.15602 11.5985C7.91297 11.483 7.53844 11.4551 7.29141 11.5348Z" fill="#222222"/>
<path d="M12.3914 11.5348C11.9731 11.6742 11.5945 12.0966 11.5069 12.5229C11.3356 13.3437 12.1563 14.1644 12.9771 13.9931C13.5947 13.8656 14.0728 13.2361 14.0131 12.6424C13.9692 12.2241 13.6545 11.7937 13.256 11.5985C13.013 11.483 12.6384 11.4551 12.3914 11.5348Z" fill="#222222"/>
<path d="M17.4914 11.5348C17.073 11.6742 16.6945 12.0966 16.6069 12.5229C16.4355 13.3437 17.2563 14.1644 18.0771 13.9931C18.6947 13.8656 19.1728 13.2361 19.113 12.6424C19.0692 12.2241 18.7545 11.7937 18.356 11.5985C18.113 11.483 17.7384 11.4551 17.4914 11.5348Z" fill="#222222"/>
<path d="M22.5914 11.5348C22.1731 11.6742 21.7945 12.0966 21.7069 12.5229C21.5356 13.3437 22.3563 14.1644 23.1771 13.9931C23.7947 13.8656 24.2728 13.2361 24.2131 12.6424C24.1692 12.2241 23.8545 11.7937 23.456 11.5985C23.213 11.483 22.8384 11.4551 22.5914 11.5348Z" fill="#222222"/>
<path d="M27.6914 11.5348C27.273 11.6742 26.8945 12.0966 26.8069 12.5229C26.6355 13.3437 27.4563 14.1644 28.2771 13.9931C28.8947 13.8656 29.3728 13.2361 29.313 12.6424C29.2692 12.2241 28.9544 11.7937 28.556 11.5985C28.313 11.483 27.9384 11.4551 27.6914 11.5348Z" fill="#222222"/>
<path d="M32.7914 11.5348C32.373 11.6742 31.9945 12.0966 31.9069 12.5229C31.7355 13.3437 32.5563 14.1644 33.3771 13.9931C33.9947 13.8656 34.4728 13.2361 34.413 12.6424C34.3692 12.2241 34.0545 11.7937 33.656 11.5985C33.413 11.483 33.0384 11.4551 32.7914 11.5348Z" fill="#222222"/>
<path d="M37.8914 11.5348C37.4731 11.6742 37.0945 12.0966 37.0069 12.5229C36.8356 13.3437 37.6563 14.1644 38.4771 13.9931C39.0947 13.8656 39.5728 13.2361 39.5131 12.6424C39.4692 12.2241 39.1545 11.7937 38.756 11.5985C38.513 11.483 38.1384 11.4551 37.8914 11.5348Z" fill="#222222"/>
<path d="M42.9914 11.5348C42.573 11.6742 42.1945 12.0966 42.1069 12.5229C41.9355 13.3437 42.7563 14.1644 43.5771 13.9931C44.1947 13.8656 44.6728 13.2361 44.613 12.6424C44.5692 12.2241 44.2545 11.7937 43.856 11.5985C43.613 11.483 43.2384 11.4551 42.9914 11.5348Z" fill="#222222"/>
<path d="M48.0914 11.5348C47.673 11.6742 47.2945 12.0966 47.2069 12.5229C47.0355 13.3437 47.8563 14.1644 48.6771 13.9931C49.2947 13.8656 49.7728 13.2361 49.713 12.6424C49.6692 12.2241 49.3544 11.7937 48.956 11.5985C48.713 11.483 48.3384 11.4551 48.0914 11.5348Z" fill="#222222"/>
<path d="M2.1914 16.6347C1.77304 16.7742 1.39453 17.1965 1.30687 17.6229C1.13554 18.4436 1.95632 19.2644 2.77711 19.0931C3.39468 18.9656 3.87281 18.3361 3.81304 17.7424C3.76921 17.324 3.45445 16.8937 3.05601 16.6985C2.81296 16.5829 2.43843 16.555 2.1914 16.6347Z" fill="#222222"/>
<path d="M7.29141 16.6347C6.87305 16.7742 6.49453 17.1965 6.40688 17.6229C6.23555 18.4436 7.05633 19.2644 7.87711 19.0931C8.49469 18.9656 8.97281 18.3361 8.91305 17.7424C8.86922 17.324 8.55446 16.8937 8.15602 16.6985C7.91297 16.5829 7.53844 16.555 7.29141 16.6347Z" fill="#222222"/>
<path d="M12.3914 16.6347C11.9731 16.7742 11.5945 17.1965 11.5069 17.6229C11.3356 18.4436 12.1563 19.2644 12.9771 19.0931C13.5947 18.9656 14.0728 18.3361 14.0131 17.7424C13.9692 17.324 13.6545 16.8937 13.256 16.6985C13.013 16.5829 12.6384 16.555 12.3914 16.6347Z" fill="#222222"/>
<path d="M17.4914 16.6347C17.073 16.7742 16.6945 17.1965 16.6069 17.6229C16.4355 18.4436 17.2563 19.2644 18.0771 19.0931C18.6947 18.9656 19.1728 18.3361 19.113 17.7424C19.0692 17.324 18.7545 16.8937 18.356 16.6985C18.113 16.5829 17.7384 16.555 17.4914 16.6347Z" fill="#222222"/>
<path d="M22.5914 16.6347C22.1731 16.7742 21.7945 17.1965 21.7069 17.6229C21.5356 18.4436 22.3563 19.2644 23.1771 19.0931C23.7947 18.9656 24.2728 18.3361 24.2131 17.7424C24.1692 17.324 23.8545 16.8937 23.456 16.6985C23.213 16.5829 22.8384 16.555 22.5914 16.6347Z" fill="#222222"/>
<path d="M27.6914 16.6347C27.273 16.7742 26.8945 17.1965 26.8069 17.6229C26.6355 18.4436 27.4563 19.2644 28.2771 19.0931C28.8947 18.9656 29.3728 18.3361 29.313 17.7424C29.2692 17.324 28.9544 16.8937 28.556 16.6985C28.313 16.5829 27.9384 16.555 27.6914 16.6347Z" fill="#222222"/>
<path d="M32.7914 16.6347C32.373 16.7742 31.9945 17.1965 31.9069 17.6229C31.7355 18.4436 32.5563 19.2644 33.3771 19.0931C33.9947 18.9656 34.4728 18.3361 34.413 17.7424C34.3692 17.324 34.0545 16.8937 33.656 16.6985C33.413 16.5829 33.0384 16.555 32.7914 16.6347Z" fill="#222222"/>
<path d="M37.8914 16.6347C37.4731 16.7742 37.0945 17.1965 37.0069 17.6229C36.8356 18.4436 37.6563 19.2644 38.4771 19.0931C39.0947 18.9656 39.5728 18.3361 39.5131 17.7424C39.4692 17.324 39.1545 16.8937 38.756 16.6985C38.513 16.5829 38.1384 16.555 37.8914 16.6347Z" fill="#222222"/>
<path d="M42.9914 16.6347C42.573 16.7742 42.1945 17.1965 42.1069 17.6229C41.9355 18.4436 42.7563 19.2644 43.5771 19.0931C44.1947 18.9656 44.6728 18.3361 44.613 17.7424C44.5692 17.324 44.2545 16.8937 43.856 16.6985C43.613 16.5829 43.2384 16.555 42.9914 16.6347Z" fill="#222222"/>
<path d="M48.0914 16.6347C47.673 16.7742 47.2945 17.1965 47.2069 17.6229C47.0355 18.4436 47.8563 19.2644 48.6771 19.0931C49.2947 18.9656 49.7728 18.3361 49.713 17.7424C49.6692 17.324 49.3544 16.8937 48.956 16.6985C48.713 16.5829 48.3384 16.555 48.0914 16.6347Z" fill="#222222"/>
<path d="M2.1914 21.7348C1.77304 21.8742 1.39453 22.2966 1.30687 22.7229C1.13554 23.5437 1.95632 24.3645 2.77711 24.1931C3.39468 24.0656 3.87281 23.4361 3.81304 22.8424C3.76921 22.4241 3.45445 21.9938 3.05601 21.7985C2.81296 21.683 2.43843 21.6551 2.1914 21.7348Z" fill="#222222"/>
<path d="M7.29141 21.7348C6.87305 21.8742 6.49453 22.2966 6.40688 22.7229C6.23555 23.5437 7.05633 24.3645 7.87711 24.1931C8.49469 24.0656 8.97281 23.4361 8.91305 22.8424C8.86922 22.4241 8.55446 21.9938 8.15602 21.7985C7.91297 21.683 7.53844 21.6551 7.29141 21.7348Z" fill="#222222"/>
<path d="M12.3914 21.7348C11.9731 21.8742 11.5945 22.2966 11.5069 22.7229C11.3356 23.5437 12.1563 24.3645 12.9771 24.1931C13.5947 24.0656 14.0728 23.4361 14.0131 22.8424C13.9692 22.4241 13.6545 21.9938 13.256 21.7985C13.013 21.683 12.6384 21.6551 12.3914 21.7348Z" fill="#222222"/>
<path d="M17.4914 21.7348C17.073 21.8742 16.6945 22.2966 16.6069 22.7229C16.4355 23.5437 17.2563 24.3645 18.0771 24.1931C18.6947 24.0656 19.1728 23.4361 19.113 22.8424C19.0692 22.4241 18.7545 21.9938 18.356 21.7985C18.113 21.683 17.7384 21.6551 17.4914 21.7348Z" fill="#222222"/>
<path d="M22.5914 21.7348C22.1731 21.8742 21.7945 22.2966 21.7069 22.7229C21.5356 23.5437 22.3563 24.3645 23.1771 24.1931C23.7947 24.0656 24.2728 23.4361 24.2131 22.8424C24.1692 22.4241 23.8545 21.9938 23.456 21.7985C23.213 21.683 22.8384 21.6551 22.5914 21.7348Z" fill="#222222"/>
<path d="M27.6914 21.7348C27.273 21.8742 26.8945 22.2966 26.8069 22.7229C26.6355 23.5437 27.4563 24.3645 28.2771 24.1931C28.8947 24.0656 29.3728 23.4361 29.313 22.8424C29.2692 22.4241 28.9544 21.9938 28.556 21.7985C28.313 21.683 27.9384 21.6551 27.6914 21.7348Z" fill="#222222"/>
<path d="M32.7914 21.7348C32.373 21.8742 31.9945 22.2966 31.9069 22.7229C31.7355 23.5437 32.5563 24.3645 33.3771 24.1931C33.9947 24.0656 34.4728 23.4361 34.413 22.8424C34.3692 22.4241 34.0545 21.9938 33.656 21.7985C33.413 21.683 33.0384 21.6551 32.7914 21.7348Z" fill="#222222"/>
<path d="M37.8914 21.7348C37.4731 21.8742 37.0945 22.2966 37.0069 22.7229C36.8356 23.5437 37.6563 24.3645 38.4771 24.1931C39.0947 24.0656 39.5728 23.4361 39.5131 22.8424C39.4692 22.4241 39.1545 21.9938 38.756 21.7985C38.513 21.683 38.1384 21.6551 37.8914 21.7348Z" fill="#222222"/>
<path d="M42.9914 21.7348C42.573 21.8742 42.1945 22.2966 42.1069 22.7229C41.9355 23.5437 42.7563 24.3645 43.5771 24.1931C44.1947 24.0656 44.6728 23.4361 44.613 22.8424C44.5692 22.4241 44.2545 21.9938 43.856 21.7985C43.613 21.683 43.2384 21.6551 42.9914 21.7348Z" fill="#222222"/>
<path d="M48.0914 21.7348C47.673 21.8742 47.2945 22.2966 47.2069 22.7229C47.0355 23.5437 47.8563 24.3645 48.6771 24.1931C49.2947 24.0656 49.7728 23.4361 49.713 22.8424C49.6692 22.4241 49.3544 21.9938 48.956 21.7985C48.713 21.683 48.3384 21.6551 48.0914 21.7348Z" fill="#222222"/>
<path d="M2.1914 26.8347C1.77304 26.9742 1.39453 27.3965 1.30687 27.8229C1.13554 28.6437 1.95632 29.4644 2.77711 29.2931C3.39468 29.1656 3.87281 28.5361 3.81304 27.9424C3.76921 27.524 3.45445 27.0937 3.05601 26.8985C2.81296 26.7829 2.43843 26.7551 2.1914 26.8347Z" fill="#222222"/>
<path d="M7.29141 26.8347C6.87305 26.9742 6.49453 27.3965 6.40688 27.8229C6.23555 28.6437 7.05633 29.4644 7.87711 29.2931C8.49469 29.1656 8.97281 28.5361 8.91305 27.9424C8.86922 27.524 8.55446 27.0937 8.15602 26.8985C7.91297 26.7829 7.53844 26.7551 7.29141 26.8347Z" fill="#222222"/>
<path d="M12.3914 26.8347C11.9731 26.9742 11.5945 27.3965 11.5069 27.8229C11.3356 28.6437 12.1563 29.4644 12.9771 29.2931C13.5947 29.1656 14.0728 28.5361 14.0131 27.9424C13.9692 27.524 13.6545 27.0937 13.256 26.8985C13.013 26.7829 12.6384 26.7551 12.3914 26.8347Z" fill="#222222"/>
<path d="M17.4914 26.8347C17.073 26.9742 16.6945 27.3965 16.6069 27.8229C16.4355 28.6437 17.2563 29.4644 18.0771 29.2931C18.6947 29.1656 19.1728 28.5361 19.113 27.9424C19.0692 27.524 18.7545 27.0937 18.356 26.8985C18.113 26.7829 17.7384 26.7551 17.4914 26.8347Z" fill="#222222"/>
<path d="M22.5914 26.8347C22.1731 26.9742 21.7945 27.3965 21.7069 27.8229C21.5356 28.6437 22.3563 29.4644 23.1771 29.2931C23.7947 29.1656 24.2728 28.5361 24.2131 27.9424C24.1692 27.524 23.8545 27.0937 23.456 26.8985C23.213 26.7829 22.8384 26.7551 22.5914 26.8347Z" fill="#222222"/>
<path d="M27.6914 26.8347C27.273 26.9742 26.8945 27.3965 26.8069 27.8229C26.6355 28.6437 27.4563 29.4644 28.2771 29.2931C28.8947 29.1656 29.3728 28.5361 29.313 27.9424C29.2692 27.524 28.9544 27.0937 28.556 26.8985C28.313 26.7829 27.9384 26.7551 27.6914 26.8347Z" fill="#222222"/>
<path d="M32.7914 26.8347C32.373 26.9742 31.9945 27.3965 31.9069 27.8229C31.7355 28.6437 32.5563 29.4644 33.3771 29.2931C33.9947 29.1656 34.4728 28.5361 34.413 27.9424C34.3692 27.524 34.0545 27.0937 33.656 26.8985C33.413 26.7829 33.0384 26.7551 32.7914 26.8347Z" fill="#222222"/>
<path d="M37.8914 26.8347C37.4731 26.9742 37.0945 27.3965 37.0069 27.8229C36.8356 28.6437 37.6563 29.4644 38.4771 29.2931C39.0947 29.1656 39.5728 28.5361 39.5131 27.9424C39.4692 27.524 39.1545 27.0937 38.756 26.8985C38.513 26.7829 38.1384 26.7551 37.8914 26.8347Z" fill="#222222"/>
<path d="M42.9914 26.8347C42.573 26.9742 42.1945 27.3965 42.1069 27.8229C41.9355 28.6437 42.7563 29.4644 43.5771 29.2931C44.1947 29.1656 44.6728 28.5361 44.613 27.9424C44.5692 27.524 44.2545 27.0937 43.856 26.8985C43.613 26.7829 43.2384 26.7551 42.9914 26.8347Z" fill="#222222"/>
<path d="M48.0914 26.8347C47.673 26.9742 47.2945 27.3965 47.2069 27.8229C47.0355 28.6437 47.8563 29.4644 48.6771 29.2931C49.2947 29.1656 49.7728 28.5361 49.713 27.9424C49.6692 27.524 49.3544 27.0937 48.956 26.8985C48.713 26.7829 48.3384 26.7551 48.0914 26.8347Z" fill="#222222"/>
<path d="M2.1914 31.9348C1.77304 32.0742 1.39453 32.4966 1.30687 32.9229C1.13554 33.7437 1.95632 34.5645 2.77711 34.3931C3.39468 34.2656 3.87281 33.6361 3.81304 33.0424C3.76921 32.6241 3.45445 32.1938 3.05601 31.9985C2.81296 31.883 2.43843 31.8551 2.1914 31.9348Z" fill="#222222"/>
<path d="M7.29141 31.9348C6.87305 32.0742 6.49453 32.4966 6.40688 32.9229C6.23555 33.7437 7.05633 34.5645 7.87711 34.3931C8.49469 34.2656 8.97281 33.6361 8.91305 33.0424C8.86922 32.6241 8.55446 32.1938 8.15602 31.9985C7.91297 31.883 7.53844 31.8551 7.29141 31.9348Z" fill="#222222"/>
<path d="M12.3914 31.9348C11.973 32.0742 11.5945 32.4966 11.5069 32.9229C11.4073 33.3891 11.6344 33.8951 12.0727 34.1939C12.499 34.4888 12.9851 34.4928 13.4154 34.2059C14.1206 33.7357 14.2163 32.8592 13.6266 32.2735C13.2879 31.9308 12.8018 31.7993 12.3914 31.9348Z" fill="#222222"/>
<path d="M17.4914 31.9348C17.0731 32.0742 16.6945 32.4966 16.6069 32.9229C16.5073 33.3891 16.7344 33.8951 17.1727 34.1939C17.599 34.4888 18.0851 34.4928 18.5154 34.2059C19.2206 33.7357 19.3163 32.8592 18.7266 32.2735C18.3879 31.9308 17.9018 31.7993 17.4914 31.9348Z" fill="#222222"/>
<path d="M22.5914 31.9348C21.9898 32.134 21.5834 32.7954 21.7069 33.3771C21.8065 33.8513 22.2488 34.2935 22.7229 34.3931C23.4919 34.5565 24.2927 33.8274 24.213 33.0424C24.1692 32.6241 23.8545 32.1938 23.456 31.9985C23.213 31.883 22.8384 31.8551 22.5914 31.9348Z" fill="#222222"/>
<path d="M27.6914 31.9348C27.0898 32.134 26.6834 32.7954 26.8069 33.3771C26.9065 33.8513 27.3488 34.2935 27.8229 34.3931C28.5919 34.5565 29.3927 33.8274 29.3131 33.0424C29.2692 32.6241 28.9545 32.1938 28.556 31.9985C28.313 31.883 27.9384 31.8551 27.6914 31.9348Z" fill="#222222"/>
<path d="M32.7914 31.9348C32.1898 32.134 31.7834 32.7954 31.9069 33.3771C32.0065 33.8513 32.4488 34.2935 32.9229 34.3931C33.6919 34.5565 34.4927 33.8274 34.4131 33.0424C34.3692 32.6241 34.0545 32.1938 33.656 31.9985C33.413 31.883 33.0385 31.8551 32.7914 31.9348Z" fill="#222222"/>
<path d="M37.8914 31.9348C37.2898 32.134 36.8834 32.7954 37.0069 33.3771C37.1065 33.8513 37.5488 34.2935 38.0229 34.3931C38.7919 34.5565 39.5927 33.8274 39.5131 33.0424C39.4692 32.6241 39.1545 32.1938 38.756 31.9985C38.513 31.883 38.1384 31.8551 37.8914 31.9348Z" fill="#222222"/>
<path d="M42.9914 31.9348C42.573 32.0742 42.1945 32.4966 42.1069 32.9229C41.9355 33.7437 42.7563 34.5645 43.5771 34.3931C44.1947 34.2656 44.6728 33.6361 44.613 33.0424C44.5692 32.6241 44.2545 32.1938 43.856 31.9985C43.613 31.883 43.2384 31.8551 42.9914 31.9348Z" fill="#222222"/>
<path d="M48.0914 31.9348C47.673 32.0742 47.2945 32.4966 47.2069 32.9229C47.0355 33.7437 47.8563 34.5645 48.6771 34.3931C49.2947 34.2656 49.7728 33.6361 49.713 33.0424C49.6692 32.6241 49.3544 32.1938 48.956 31.9985C48.713 31.883 48.3384 31.8551 48.0914 31.9348Z" fill="#222222"/>
<path d="M2.1914 37.0348C1.77304 37.1742 1.39453 37.5966 1.30687 38.0229C1.13554 38.8437 1.95632 39.6644 2.77711 39.4931C3.39468 39.3656 3.87281 38.7361 3.81304 38.1424C3.76921 37.7241 3.45445 37.2937 3.05601 37.0985C2.81296 36.983 2.43843 36.9551 2.1914 37.0348Z" fill="#222222"/>
<path d="M7.29141 37.0348C6.87305 37.1742 6.49453 37.5966 6.40688 38.0229C6.23555 38.8437 7.05633 39.6644 7.87711 39.4931C8.49469 39.3656 8.97281 38.7361 8.91305 38.1424C8.86922 37.7241 8.55446 37.2937 8.15602 37.0985C7.91297 36.983 7.53844 36.9551 7.29141 37.0348Z" fill="#222222"/>
<path d="M12.3914 37.0348C11.973 37.1742 11.5945 37.5966 11.5069 38.0229C11.4073 38.4891 11.6344 38.9951 12.0727 39.2939C12.499 39.5887 12.9851 39.5927 13.4154 39.3059C14.1206 38.8357 14.2163 37.9591 13.6266 37.3734C13.2879 37.0308 12.8018 36.8993 12.3914 37.0348Z" fill="#222222"/>
<path d="M17.4914 37.0348C17.0731 37.1742 16.6945 37.5966 16.6069 38.0229C16.5073 38.4891 16.7344 38.9951 17.1727 39.2939C17.599 39.5887 18.0851 39.5927 18.5154 39.3059C19.2206 38.8357 19.3163 37.9591 18.7266 37.3734C18.3879 37.0308 17.9018 36.8993 17.4914 37.0348Z" fill="#222222"/>
<path d="M22.5914 37.0348C21.9898 37.234 21.5834 37.8954 21.7069 38.4771C21.8065 38.9512 22.2488 39.3935 22.7229 39.4931C23.4919 39.6565 24.2927 38.9273 24.213 38.1424C24.1692 37.7241 23.8545 37.2937 23.456 37.0985C23.213 36.983 22.8384 36.9551 22.5914 37.0348Z" fill="#222222"/>
<path d="M27.6914 37.0348C27.0898 37.234 26.6834 37.8954 26.8069 38.4771C26.9065 38.9512 27.3488 39.3935 27.8229 39.4931C28.5919 39.6565 29.3927 38.9273 29.3131 38.1424C29.2692 37.7241 28.9545 37.2937 28.556 37.0985C28.313 36.983 27.9384 36.9551 27.6914 37.0348Z" fill="#222222"/>
<path d="M32.7914 37.0348C32.1898 37.234 31.7834 37.8954 31.9069 38.4771C32.0065 38.9512 32.4488 39.3935 32.9229 39.4931C33.6919 39.6565 34.4927 38.9273 34.4131 38.1424C34.3692 37.7241 34.0545 37.2937 33.656 37.0985C33.413 36.983 33.0385 36.9551 32.7914 37.0348Z" fill="#222222"/>
<path d="M37.8914 37.0348C37.2898 37.234 36.8834 37.8954 37.0069 38.4771C37.1065 38.9512 37.5488 39.3935 38.0229 39.4931C38.7919 39.6565 39.5927 38.9273 39.5131 38.1424C39.4692 37.7241 39.1545 37.2937 38.756 37.0985C38.513 36.983 38.1384 36.9551 37.8914 37.0348Z" fill="#222222"/>
<path d="M42.9914 37.0348C42.573 37.1742 42.1945 37.5966 42.1069 38.0229C41.9355 38.8437 42.7563 39.6644 43.5771 39.4931C44.1947 39.3656 44.6728 38.7361 44.613 38.1424C44.5692 37.7241 44.2545 37.2937 43.856 37.0985C43.613 36.983 43.2384 36.9551 42.9914 37.0348Z" fill="#222222"/>
<path d="M48.0914 37.0348C47.673 37.1742 47.2945 37.5966 47.2069 38.0229C47.0355 38.8437 47.8563 39.6644 48.6771 39.4931C49.2947 39.3656 49.7728 38.7361 49.713 38.1424C49.6692 37.7241 49.3544 37.2937 48.956 37.0985C48.713 36.983 48.3384 36.9551 48.0914 37.0348Z" fill="#222222"/>
<path d="M2.1914 42.1347C1.77304 42.2742 1.39453 42.6965 1.30687 43.1229C1.13554 43.9436 1.95632 44.7644 2.77711 44.5931C3.39468 44.4656 3.87281 43.8361 3.81304 43.2424C3.76921 42.824 3.45445 42.3937 3.05601 42.1985C2.81296 42.0829 2.43843 42.055 2.1914 42.1347Z" fill="#222222"/>
<path d="M7.29141 42.1347C6.87305 42.2742 6.49453 42.6965 6.40688 43.1229C6.23555 43.9436 7.05633 44.7644 7.87711 44.5931C8.49469 44.4656 8.97281 43.8361 8.91305 43.2424C8.86922 42.824 8.55446 42.3937 8.15602 42.1985C7.91297 42.0829 7.53844 42.055 7.29141 42.1347Z" fill="#222222"/>
<path d="M12.3914 42.1347C11.973 42.2742 11.5945 42.6965 11.5069 43.1229C11.4073 43.589 11.6344 44.0951 12.0727 44.3939C12.499 44.6887 12.9851 44.6927 13.4154 44.4058C14.1206 43.9357 14.2163 43.0591 13.6266 42.4734C13.2879 42.1308 12.8018 41.9993 12.3914 42.1347Z" fill="#222222"/>
<path d="M17.4914 42.1347C17.0731 42.2742 16.6945 42.6965 16.6069 43.1229C16.5073 43.589 16.7344 44.0951 17.1727 44.3939C17.599 44.6887 18.0851 44.6927 18.5154 44.4058C19.2206 43.9357 19.3163 43.0591 18.7266 42.4734C18.3879 42.1308 17.9018 41.9993 17.4914 42.1347Z" fill="#222222"/>
<path d="M22.5914 42.1347C22.1731 42.2742 21.7945 42.6965 21.7069 43.1229C21.5356 43.9436 22.3563 44.7644 23.1771 44.5931C23.7947 44.4656 24.2728 43.8361 24.2131 43.2424C24.1692 42.824 23.8545 42.3937 23.456 42.1985C23.213 42.0829 22.8384 42.055 22.5914 42.1347Z" fill="#222222"/>
<path d="M27.6914 42.1347C27.273 42.2742 26.8945 42.6965 26.8069 43.1229C26.6355 43.9436 27.4563 44.7644 28.2771 44.5931C28.8947 44.4656 29.3728 43.8361 29.313 43.2424C29.2692 42.824 28.9544 42.3937 28.556 42.1985C28.313 42.0829 27.9384 42.055 27.6914 42.1347Z" fill="#222222"/>
<path d="M32.7914 42.1347C32.373 42.2742 31.9945 42.6965 31.9069 43.1229C31.7355 43.9436 32.5563 44.7644 33.3771 44.5931C33.9947 44.4656 34.4728 43.8361 34.413 43.2424C34.3692 42.824 34.0545 42.3937 33.656 42.1985C33.413 42.0829 33.0384 42.055 32.7914 42.1347Z" fill="#222222"/>
<path d="M37.8914 42.1347C37.4731 42.2742 37.0945 42.6965 37.0069 43.1229C36.8356 43.9436 37.6563 44.7644 38.4771 44.5931C39.0947 44.4656 39.5728 43.8361 39.5131 43.2424C39.4692 42.824 39.1545 42.3937 38.756 42.1985C38.513 42.0829 38.1384 42.055 37.8914 42.1347Z" fill="#222222"/>
<path d="M42.9914 42.1347C42.573 42.2742 42.1945 42.6965 42.1069 43.1229C41.9355 43.9436 42.7563 44.7644 43.5771 44.5931C44.1947 44.4656 44.6728 43.8361 44.613 43.2424C44.5692 42.824 44.2545 42.3937 43.856 42.1985C43.613 42.0829 43.2384 42.055 42.9914 42.1347Z" fill="#222222"/>
<path d="M48.0914 42.1347C47.673 42.2742 47.2945 42.6965 47.2069 43.1229C47.0355 43.9436 47.8563 44.7644 48.6771 44.5931C49.2947 44.4656 49.7728 43.8361 49.713 43.2424C49.6692 42.824 49.3544 42.3937 48.956 42.1985C48.713 42.0829 48.3384 42.055 48.0914 42.1347Z" fill="#222222"/>
<path d="M2.1914 47.2348C1.77304 47.3742 1.39453 47.7966 1.30687 48.2229C1.13554 49.0437 1.95632 49.8645 2.77711 49.6931C3.39468 49.5656 3.87281 48.9361 3.81304 48.3424C3.76921 47.9241 3.45445 47.4938 3.05601 47.2985C2.81296 47.183 2.43843 47.1551 2.1914 47.2348Z" fill="#222222"/>
<path d="M7.29141 47.2348C6.87305 47.3742 6.49453 47.7966 6.40688 48.2229C6.23555 49.0437 7.05633 49.8645 7.87711 49.6931C8.49469 49.5656 8.97281 48.9361 8.91305 48.3424C8.86922 47.9241 8.55446 47.4938 8.15602 47.2985C7.91297 47.183 7.53844 47.1551 7.29141 47.2348Z" fill="#222222"/>
<path d="M12.3914 47.2348C11.9731 47.3742 11.5945 47.7966 11.5069 48.2229C11.3356 49.0437 12.1563 49.8645 12.9771 49.6931C13.5947 49.5656 14.0728 48.9361 14.0131 48.3424C13.9692 47.9241 13.6545 47.4938 13.256 47.2985C13.013 47.183 12.6384 47.1551 12.3914 47.2348Z" fill="#222222"/>
<path d="M17.4914 47.2348C17.073 47.3742 16.6945 47.7966 16.6069 48.2229C16.4355 49.0437 17.2563 49.8645 18.0771 49.6931C18.6947 49.5656 19.1728 48.9361 19.113 48.3424C19.0692 47.9241 18.7545 47.4938 18.356 47.2985C18.113 47.183 17.7384 47.1551 17.4914 47.2348Z" fill="#222222"/>
<path d="M22.5914 47.2348C22.1731 47.3742 21.7945 47.7966 21.7069 48.2229C21.5356 49.0437 22.3563 49.8645 23.1771 49.6931C23.7947 49.5656 24.2728 48.9361 24.2131 48.3424C24.1692 47.9241 23.8545 47.4938 23.456 47.2985C23.213 47.183 22.8384 47.1551 22.5914 47.2348Z" fill="#222222"/>
<path d="M27.6914 47.2348C27.273 47.3742 26.8945 47.7966 26.8069 48.2229C26.6355 49.0437 27.4563 49.8645 28.2771 49.6931C28.8947 49.5656 29.3728 48.9361 29.313 48.3424C29.2692 47.9241 28.9544 47.4938 28.556 47.2985C28.313 47.183 27.9384 47.1551 27.6914 47.2348Z" fill="#222222"/>
<path d="M32.7914 47.2348C32.373 47.3742 31.9945 47.7966 31.9069 48.2229C31.7355 49.0437 32.5563 49.8645 33.3771 49.6931C33.9947 49.5656 34.4728 48.9361 34.413 48.3424C34.3692 47.9241 34.0545 47.4938 33.656 47.2985C33.413 47.183 33.0384 47.1551 32.7914 47.2348Z" fill="#222222"/>
<path d="M37.8914 47.2348C37.4731 47.3742 37.0945 47.7966 37.0069 48.2229C36.8356 49.0437 37.6563 49.8645 38.4771 49.6931C39.0947 49.5656 39.5728 48.9361 39.5131 48.3424C39.4692 47.9241 39.1545 47.4938 38.756 47.2985C38.513 47.183 38.1384 47.1551 37.8914 47.2348Z" fill="#222222"/>
<path d="M42.9914 47.2348C42.573 47.3742 42.1945 47.7966 42.1069 48.2229C41.9355 49.0437 42.7563 49.8645 43.5771 49.6931C44.1947 49.5656 44.6728 48.9361 44.613 48.3424C44.5692 47.9241 44.2545 47.4938 43.856 47.2985C43.613 47.183 43.2384 47.1551 42.9914 47.2348Z" fill="#222222"/>
<path d="M48.0914 47.2348C47.673 47.3742 47.2945 47.7966 47.2069 48.2229C47.0355 49.0437 47.8563 49.8645 48.6771 49.6931C49.2947 49.5656 49.7728 48.9361 49.713 48.3424C49.6692 47.9241 49.3544 47.4938 48.956 47.2985C48.713 47.183 48.3384 47.1551 48.0914 47.2348Z" fill="#222222"/>
</svg>
