<svg width="123" height="30" viewBox="0 0 123 30" fill="none" xmlns="http://www.w3.org/2000/svg">
<path d="M3.375 29.1094C3.04688 29.1094 2.77734 29.0039 2.56641 28.793C2.35547 28.582 2.25 28.3359 2.25 28.0547C2.25 27.7734 2.35547 27.5273 2.56641 27.3164C2.77734 27.1055 3.04688 27 3.375 27H6.67969C7.00781 27 7.27734 27.1055 7.48828 27.3164C7.69922 27.5273 7.80469 27.7734 7.80469 28.0547C7.80469 28.3359 7.69922 28.582 7.48828 28.793C7.27734 29.0039 7.00781 29.1094 6.67969 29.1094H3.375ZM10.125 29.1094C9.79688 29.1094 9.52734 29.0039 9.31641 28.793C9.10547 28.582 9 28.3359 9 28.0547C9 27.7734 9.10547 27.5273 9.31641 27.3164C9.52734 27.1055 9.79688 27 10.125 27H13.4297C13.7578 27 14.0273 27.1055 14.2383 27.3164C14.4492 27.5273 14.5547 27.7734 14.5547 28.0547C14.5547 28.3359 14.4492 28.582 14.2383 28.793C14.0273 29.0039 13.7578 29.1094 13.4297 29.1094H10.125ZM3.375 24.6094C3.04688 24.6094 2.77734 24.5039 2.56641 24.293C2.35547 24.082 2.25 23.8359 2.25 23.5547C2.25 23.2734 2.35547 23.0273 2.56641 22.8164C2.77734 22.6055 3.04688 22.5 3.375 22.5H6.67969C7.00781 22.5 7.27734 22.6055 7.48828 22.8164C7.69922 23.0273 7.80469 23.2734 7.80469 23.5547C7.80469 23.8359 7.69922 24.082 7.48828 24.293C7.27734 24.5039 7.00781 24.6094 6.67969 24.6094H3.375ZM10.125 24.6094C9.79688 24.6094 9.52734 24.5039 9.31641 24.293C9.10547 24.082 9 23.8359 9 23.5547C9 23.2734 9.10547 23.0273 9.31641 22.8164C9.52734 22.6055 9.79688 22.5 10.125 22.5H13.4297C13.7578 22.5 14.0273 22.6055 14.2383 22.8164C14.4492 23.0273 14.5547 23.2734 14.5547 23.5547C14.5547 23.8359 14.4492 24.082 14.2383 24.293C14.0273 24.5039 13.7578 24.6094 13.4297 24.6094H10.125ZM1.125 20.1094C0.796875 20.1094 0.527344 20.0039 0.316406 19.793C0.105469 19.582 0 19.3359 0 19.0547C0 18.7734 0.105469 18.5273 0.316406 18.3164C0.527344 18.1055 0.796875 18 1.125 18H4.42969C4.75781 18 5.02734 18.1055 5.23828 18.3164C5.44922 18.5273 5.55469 18.7734 5.55469 19.0547C5.55469 19.3359 5.44922 19.582 5.23828 19.793C5.02734 20.0039 4.75781 20.1094 4.42969 20.1094H1.125ZM7.66406 20.1094C7.38281 20.1094 7.16016 20.0039 6.99609 19.793C6.83203 19.582 6.75 19.3359 6.75 19.0547C6.75 18.7734 6.83203 18.5273 6.99609 18.3164C7.16016 18.1055 7.38281 18 7.66406 18H9.14062C9.42188 18 9.64453 18.1055 9.80859 18.3164C9.97266 18.5273 10.0547 18.7734 10.0547 19.0547C10.0547 19.3359 9.97266 19.582 9.80859 19.793C9.64453 20.0039 9.42188 20.1094 9.14062 20.1094H7.66406ZM12.375 20.1094C12.0469 20.1094 11.7773 20.0039 11.5664 19.793C11.3555 19.582 11.25 19.3359 11.25 19.0547C11.25 18.7734 11.3555 18.5273 11.5664 18.3164C11.7773 18.1055 12.0469 18 12.375 18H15.6797C16.0078 18 16.2773 18.1055 16.4883 18.3164C16.6992 18.5273 16.8047 18.7734 16.8047 19.0547C16.8047 19.3359 16.6992 19.582 16.4883 19.793C16.2773 20.0039 16.0078 20.1094 15.6797 20.1094H12.375ZM1.125 15.6094C0.796875 15.6094 0.527344 15.5039 0.316406 15.293C0.105469 15.082 0 14.8359 0 14.5547C0 14.2734 0.105469 14.0273 0.316406 13.8164C0.527344 13.6055 0.796875 13.5 1.125 13.5H4.42969C4.75781 13.5 5.02734 13.6055 5.23828 13.8164C5.44922 14.0273 5.55469 14.2734 5.55469 14.5547C5.55469 14.8359 5.44922 15.082 5.23828 15.293C5.02734 15.5039 4.75781 15.6094 4.42969 15.6094H1.125ZM7.66406 15.6094C7.38281 15.6094 7.16016 15.5039 6.99609 15.293C6.83203 15.082 6.75 14.8359 6.75 14.5547C6.75 14.2734 6.83203 14.0273 6.99609 13.8164C7.16016 13.6055 7.38281 13.5 7.66406 13.5H9.14062C9.42188 13.5 9.64453 13.6055 9.80859 13.8164C9.97266 14.0273 10.0547 14.2734 10.0547 14.5547C10.0547 14.8359 9.97266 15.082 9.80859 15.293C9.64453 15.5039 9.42188 15.6094 9.14062 15.6094H7.66406ZM12.375 15.6094C12.0469 15.6094 11.7773 15.5039 11.5664 15.293C11.3555 15.082 11.25 14.8359 11.25 14.5547C11.25 14.2734 11.3555 14.0273 11.5664 13.8164C11.7773 13.6055 12.0469 13.5 12.375 13.5H15.6797C16.0078 13.5 16.2773 13.6055 16.4883 13.8164C16.6992 14.0273 16.8047 14.2734 16.8047 14.5547C16.8047 14.8359 16.6992 15.082 16.4883 15.293C16.2773 15.5039 16.0078 15.6094 15.6797 15.6094H12.375ZM1.125 11.1094C0.796875 11.1094 0.527344 11.0039 0.316406 10.793C0.105469 10.582 0 10.3359 0 10.0547C0 9.77344 0.105469 9.52734 0.316406 9.31641C0.527344 9.10547 0.796875 9 1.125 9H4.42969C4.75781 9 5.02734 9.10547 5.23828 9.31641C5.44922 9.52734 5.55469 9.77344 5.55469 10.0547C5.55469 10.3359 5.44922 10.582 5.23828 10.793C5.02734 11.0039 4.75781 11.1094 4.42969 11.1094H1.125ZM12.375 11.1094C12.0469 11.1094 11.7773 11.0039 11.5664 10.793C11.3555 10.582 11.25 10.3359 11.25 10.0547C11.25 9.77344 11.3555 9.52734 11.5664 9.31641C11.7773 9.10547 12.0469 9 12.375 9H15.6797C16.0078 9 16.2773 9.10547 16.4883 9.31641C16.6992 9.52734 16.8047 9.77344 16.8047 10.0547C16.8047 10.3359 16.6992 10.582 16.4883 10.793C16.2773 11.0039 16.0078 11.1094 15.6797 11.1094H12.375ZM21.5156 29.1094C21.1172 29.1094 20.8008 29.0039 20.5664 28.793C20.3555 28.582 20.25 28.3359 20.25 28.0547C20.25 27.7734 20.3555 27.5273 20.5664 27.3164C20.8008 27.1055 21.1172 27 21.5156 27H29.0391C29.4375 27 29.7422 27.1055 29.9531 27.3164C30.1875 27.5273 30.3047 27.7734 30.3047 28.0547C30.3047 28.3359 30.1875 28.582 29.9531 28.793C29.7422 29.0039 29.4375 29.1094 29.0391 29.1094H21.5156ZM19.125 24.6094C18.7969 24.6094 18.5273 24.5039 18.3164 24.293C18.1055 24.082 18 23.8359 18 23.5547C18 23.2734 18.1055 23.0273 18.3164 22.8164C18.5273 22.6055 18.7969 22.5 19.125 22.5H22.4297C22.7578 22.5 23.0273 22.6055 23.2383 22.8164C23.4492 23.0273 23.5547 23.2734 23.5547 23.5547C23.5547 23.8359 23.4492 24.082 23.2383 24.293C23.0273 24.5039 22.7578 24.6094 22.4297 24.6094H19.125ZM19.2656 20.1094C18.8672 20.1094 18.5508 20.0039 18.3164 19.793C18.1055 19.582 18 19.3359 18 19.0547C18 18.7734 18.1055 18.5273 18.3164 18.3164C18.5508 18.1055 18.8672 18 19.2656 18H31.2891C31.6875 18 31.9922 18.1055 32.2031 18.3164C32.4375 18.5273 32.5547 18.7734 32.5547 19.0547C32.5547 19.3359 32.4375 19.582 32.2031 19.793C31.9922 20.0039 31.6875 20.1094 31.2891 20.1094H19.2656ZM19.125 15.6094C18.7969 15.6094 18.5273 15.5039 18.3164 15.293C18.1055 15.082 18 14.8359 18 14.5547C18 14.2734 18.1055 14.0273 18.3164 13.8164C18.5273 13.6055 18.7969 13.5 19.125 13.5H22.4297C22.7578 13.5 23.0273 13.6055 23.2383 13.8164C23.4492 14.0273 23.5547 14.2734 23.5547 14.5547C23.5547 14.8359 23.4492 15.082 23.2383 15.293C23.0273 15.5039 22.7578 15.6094 22.4297 15.6094H19.125ZM28.125 15.6094C27.7969 15.6094 27.5273 15.5039 27.3164 15.293C27.1055 15.082 27 14.8359 27 14.5547C27 14.2734 27.1055 14.0273 27.3164 13.8164C27.5273 13.6055 27.7969 13.5 28.125 13.5H31.4297C31.7578 13.5 32.0273 13.6055 32.2383 13.8164C32.4492 14.0273 32.5547 14.2734 32.5547 14.5547C32.5547 14.8359 32.4492 15.082 32.2383 15.293C32.0273 15.5039 31.7578 15.6094 31.4297 15.6094H28.125ZM21.5156 11.1094C21.1172 11.1094 20.8008 11.0039 20.5664 10.793C20.3555 10.582 20.25 10.3359 20.25 10.0547C20.25 9.77344 20.3555 9.52734 20.5664 9.31641C20.8008 9.10547 21.1172 9 21.5156 9H29.0391C29.4375 9 29.7422 9.10547 29.9531 9.31641C30.1875 9.52734 30.3047 9.77344 30.3047 10.0547C30.3047 10.3359 30.1875 10.582 29.9531 10.793C29.7422 11.0039 29.4375 11.1094 29.0391 11.1094H21.5156ZM39.5156 29.1094C39.1172 29.1094 38.8008 29.0039 38.5664 28.793C38.3555 28.582 38.25 28.3359 38.25 28.0547C38.25 27.7734 38.3555 27.5273 38.5664 27.3164C38.8008 27.1055 39.1172 27 39.5156 27H47.0391C47.4375 27 47.7422 27.1055 47.9531 27.3164C48.1875 27.5273 48.3047 27.7734 48.3047 28.0547C48.3047 28.3359 48.1875 28.582 47.9531 28.793C47.7422 29.0039 47.4375 29.1094 47.0391 29.1094H39.5156ZM41.625 24.6094C41.2969 24.6094 41.0273 24.5039 40.8164 24.293C40.6055 24.082 40.5 23.8359 40.5 23.5547C40.5 23.2734 40.6055 23.0273 40.8164 22.8164C41.0273 22.6055 41.2969 22.5 41.625 22.5H44.9297C45.2578 22.5 45.5273 22.6055 45.7383 22.8164C45.9492 23.0273 46.0547 23.2734 46.0547 23.5547C46.0547 23.8359 45.9492 24.082 45.7383 24.293C45.5273 24.5039 45.2578 24.6094 44.9297 24.6094H41.625ZM41.625 20.1094C41.2969 20.1094 41.0273 20.0039 40.8164 19.793C40.6055 19.582 40.5 19.3359 40.5 19.0547C40.5 18.7734 40.6055 18.5273 40.8164 18.3164C41.0273 18.1055 41.2969 18 41.625 18H44.9297C45.2578 18 45.5273 18.1055 45.7383 18.3164C45.9492 18.5273 46.0547 18.7734 46.0547 19.0547C46.0547 19.3359 45.9492 19.582 45.7383 19.793C45.5273 20.0039 45.2578 20.1094 44.9297 20.1094H41.625ZM41.625 15.6094C41.2969 15.6094 41.0273 15.5039 40.8164 15.293C40.6055 15.082 40.5 14.8359 40.5 14.5547C40.5 14.2734 40.6055 14.0273 40.8164 13.8164C41.0273 13.6055 41.2969 13.5 41.625 13.5H44.9297C45.2578 13.5 45.5273 13.6055 45.7383 13.8164C45.9492 14.0273 46.0547 14.2734 46.0547 14.5547C46.0547 14.8359 45.9492 15.082 45.7383 15.293C45.5273 15.5039 45.2578 15.6094 44.9297 15.6094H41.625ZM41.625 11.1094C41.2969 11.1094 41.0273 11.0039 40.8164 10.793C40.6055 10.582 40.5 10.3359 40.5 10.0547C40.5 9.77344 40.6055 9.52734 40.8164 9.31641C41.0273 9.10547 41.2969 9 41.625 9H44.9297C45.2578 9 45.5273 9.10547 45.7383 9.31641C45.9492 9.52734 46.0547 9.77344 46.0547 10.0547C46.0547 10.3359 45.9492 10.582 45.7383 10.793C45.5273 11.0039 45.2578 11.1094 44.9297 11.1094H41.625ZM41.625 6.60938C41.2969 6.60938 41.0273 6.50391 40.8164 6.29297C40.6055 6.08203 40.5 5.83594 40.5 5.55469C40.5 5.27344 40.6055 5.02734 40.8164 4.81641C41.0273 4.60547 41.2969 4.5 41.625 4.5H44.9297C45.2578 4.5 45.5273 4.60547 45.7383 4.81641C45.9492 5.02734 46.0547 5.27344 46.0547 5.55469C46.0547 5.83594 45.9492 6.08203 45.7383 6.29297C45.5273 6.50391 45.2578 6.60938 44.9297 6.60938H41.625ZM39.375 2.10938C39.0469 2.10938 38.7773 2.00391 38.5664 1.79297C38.3555 1.58203 38.25 1.33594 38.25 1.05469C38.25 0.773438 38.3555 0.527344 38.5664 0.316406C38.7773 0.105469 39.0469 0 39.375 0H44.9297C45.2578 0 45.5273 0.105469 45.7383 0.316406C45.9492 0.527344 46.0547 0.773438 46.0547 1.05469C46.0547 1.33594 45.9492 1.58203 45.7383 1.79297C45.5273 2.00391 45.2578 2.10938 44.9297 2.10938H39.375ZM57.5156 29.1094C57.1172 29.1094 56.8008 29.0039 56.5664 28.793C56.3555 28.582 56.25 28.3359 56.25 28.0547C56.25 27.7734 56.3555 27.5273 56.5664 27.3164C56.8008 27.1055 57.1172 27 57.5156 27H65.0391C65.4375 27 65.7422 27.1055 65.9531 27.3164C66.1875 27.5273 66.3047 27.7734 66.3047 28.0547C66.3047 28.3359 66.1875 28.582 65.9531 28.793C65.7422 29.0039 65.4375 29.1094 65.0391 29.1094H57.5156ZM55.125 24.6094C54.7969 24.6094 54.5273 24.5039 54.3164 24.293C54.1055 24.082 54 23.8359 54 23.5547C54 23.2734 54.1055 23.0273 54.3164 22.8164C54.5273 22.6055 54.7969 22.5 55.125 22.5H58.4297C58.7578 22.5 59.0273 22.6055 59.2383 22.8164C59.4492 23.0273 59.5547 23.2734 59.5547 23.5547C59.5547 23.8359 59.4492 24.082 59.2383 24.293C59.0273 24.5039 58.7578 24.6094 58.4297 24.6094H55.125ZM64.125 24.6094C63.7969 24.6094 63.5273 24.5039 63.3164 24.293C63.1055 24.082 63 23.8359 63 23.5547C63 23.2734 63.1055 23.0273 63.3164 22.8164C63.5273 22.6055 63.7969 22.5 64.125 22.5H67.4297C67.7578 22.5 68.0273 22.6055 68.2383 22.8164C68.4492 23.0273 68.5547 23.2734 68.5547 23.5547C68.5547 23.8359 68.4492 24.082 68.2383 24.293C68.0273 24.5039 67.7578 24.6094 67.4297 24.6094H64.125ZM55.125 20.1094C54.7969 20.1094 54.5273 20.0039 54.3164 19.793C54.1055 19.582 54 19.3359 54 19.0547C54 18.7734 54.1055 18.5273 54.3164 18.3164C54.5273 18.1055 54.7969 18 55.125 18H58.4297C58.7578 18 59.0273 18.1055 59.2383 18.3164C59.4492 18.5273 59.5547 18.7734 59.5547 19.0547C59.5547 19.3359 59.4492 19.582 59.2383 19.793C59.0273 20.0039 58.7578 20.1094 58.4297 20.1094H55.125ZM55.125 15.6094C54.7969 15.6094 54.5273 15.5039 54.3164 15.293C54.1055 15.082 54 14.8359 54 14.5547C54 14.2734 54.1055 14.0273 54.3164 13.8164C54.5273 13.6055 54.7969 13.5 55.125 13.5H58.4297C58.7578 13.5 59.0273 13.6055 59.2383 13.8164C59.4492 14.0273 59.5547 14.2734 59.5547 14.5547C59.5547 14.8359 59.4492 15.082 59.2383 15.293C59.0273 15.5039 58.7578 15.6094 58.4297 15.6094H55.125ZM64.125 15.6094C63.7969 15.6094 63.5273 15.5039 63.3164 15.293C63.1055 15.082 63 14.8359 63 14.5547C63 14.2734 63.1055 14.0273 63.3164 13.8164C63.5273 13.6055 63.7969 13.5 64.125 13.5H67.4297C67.7578 13.5 68.0273 13.6055 68.2383 13.8164C68.4492 14.0273 68.5547 14.2734 68.5547 14.5547C68.5547 14.8359 68.4492 15.082 68.2383 15.293C68.0273 15.5039 67.7578 15.6094 67.4297 15.6094H64.125ZM57.5156 11.1094C57.1172 11.1094 56.8008 11.0039 56.5664 10.793C56.3555 10.582 56.25 10.3359 56.25 10.0547C56.25 9.77344 56.3555 9.52734 56.5664 9.31641C56.8008 9.10547 57.1172 9 57.5156 9H65.0391C65.4375 9 65.7422 9.10547 65.9531 9.31641C66.1875 9.52734 66.3047 9.77344 66.3047 10.0547C66.3047 10.3359 66.1875 10.582 65.9531 10.793C65.7422 11.0039 65.4375 11.1094 65.0391 11.1094H57.5156ZM75.5156 29.1094C75.1172 29.1094 74.8008 29.0039 74.5664 28.793C74.3555 28.582 74.25 28.3359 74.25 28.0547C74.25 27.7734 74.3555 27.5273 74.5664 27.3164C74.8008 27.1055 75.1172 27 75.5156 27H83.0391C83.4375 27 83.7422 27.1055 83.9531 27.3164C84.1875 27.5273 84.3047 27.7734 84.3047 28.0547C84.3047 28.3359 84.1875 28.582 83.9531 28.793C83.7422 29.0039 83.4375 29.1094 83.0391 29.1094H75.5156ZM73.125 24.6094C72.7969 24.6094 72.5273 24.5039 72.3164 24.293C72.1055 24.082 72 23.8359 72 23.5547C72 23.2734 72.1055 23.0273 72.3164 22.8164C72.5273 22.6055 72.7969 22.5 73.125 22.5H76.4297C76.7578 22.5 77.0273 22.6055 77.2383 22.8164C77.4492 23.0273 77.5547 23.2734 77.5547 23.5547C77.5547 23.8359 77.4492 24.082 77.2383 24.293C77.0273 24.5039 76.7578 24.6094 76.4297 24.6094H73.125ZM82.125 24.6094C81.7969 24.6094 81.5273 24.5039 81.3164 24.293C81.1055 24.082 81 23.8359 81 23.5547C81 23.2734 81.1055 23.0273 81.3164 22.8164C81.5273 22.6055 81.7969 22.5 82.125 22.5H85.4297C85.7578 22.5 86.0273 22.6055 86.2383 22.8164C86.4492 23.0273 86.5547 23.2734 86.5547 23.5547C86.5547 23.8359 86.4492 24.082 86.2383 24.293C86.0273 24.5039 85.7578 24.6094 85.4297 24.6094H82.125ZM73.125 20.1094C72.7969 20.1094 72.5273 20.0039 72.3164 19.793C72.1055 19.582 72 19.3359 72 19.0547C72 18.7734 72.1055 18.5273 72.3164 18.3164C72.5273 18.1055 72.7969 18 73.125 18H76.4297C76.7578 18 77.0273 18.1055 77.2383 18.3164C77.4492 18.5273 77.5547 18.7734 77.5547 19.0547C77.5547 19.3359 77.4492 19.582 77.2383 19.793C77.0273 20.0039 76.7578 20.1094 76.4297 20.1094H73.125ZM82.125 20.1094C81.7969 20.1094 81.5273 20.0039 81.3164 19.793C81.1055 19.582 81 19.3359 81 19.0547C81 18.7734 81.1055 18.5273 81.3164 18.3164C81.5273 18.1055 81.7969 18 82.125 18H85.4297C85.7578 18 86.0273 18.1055 86.2383 18.3164C86.4492 18.5273 86.5547 18.7734 86.5547 19.0547C86.5547 19.3359 86.4492 19.582 86.2383 19.793C86.0273 20.0039 85.7578 20.1094 85.4297 20.1094H82.125ZM73.125 15.6094C72.7969 15.6094 72.5273 15.5039 72.3164 15.293C72.1055 15.082 72 14.8359 72 14.5547C72 14.2734 72.1055 14.0273 72.3164 13.8164C72.5273 13.6055 72.7969 13.5 73.125 13.5H76.4297C76.7578 13.5 77.0273 13.6055 77.2383 13.8164C77.4492 14.0273 77.5547 14.2734 77.5547 14.5547C77.5547 14.8359 77.4492 15.082 77.2383 15.293C77.0273 15.5039 76.7578 15.6094 76.4297 15.6094H73.125ZM82.125 15.6094C81.7969 15.6094 81.5273 15.5039 81.3164 15.293C81.1055 15.082 81 14.8359 81 14.5547C81 14.2734 81.1055 14.0273 81.3164 13.8164C81.5273 13.6055 81.7969 13.5 82.125 13.5H85.4297C85.7578 13.5 86.0273 13.6055 86.2383 13.8164C86.4492 14.0273 86.5547 14.2734 86.5547 14.5547C86.5547 14.8359 86.4492 15.082 86.2383 15.293C86.0273 15.5039 85.7578 15.6094 85.4297 15.6094H82.125ZM75.5156 11.1094C75.1172 11.1094 74.8008 11.0039 74.5664 10.793C74.3555 10.582 74.25 10.3359 74.25 10.0547C74.25 9.77344 74.3555 9.52734 74.5664 9.31641C74.8008 9.10547 75.1172 9 75.5156 9H83.0391C83.4375 9 83.7422 9.10547 83.9531 9.31641C84.1875 9.52734 84.3047 9.77344 84.3047 10.0547C84.3047 10.3359 84.1875 10.582 83.9531 10.793C83.7422 11.0039 83.4375 11.1094 83.0391 11.1094H75.5156ZM91.125 29.1094C90.7969 29.1094 90.5273 29.0039 90.3164 28.793C90.1055 28.582 90 28.3359 90 28.0547C90 27.7734 90.1055 27.5273 90.3164 27.3164C90.5273 27.1055 90.7969 27 91.125 27H94.4297C94.7578 27 95.0273 27.1055 95.2383 27.3164C95.4492 27.5273 95.5547 27.7734 95.5547 28.0547C95.5547 28.3359 95.4492 28.582 95.2383 28.793C95.0273 29.0039 94.7578 29.1094 94.4297 29.1094H91.125ZM102.375 29.1094C102.047 29.1094 101.777 29.0039 101.566 28.793C101.355 28.582 101.25 28.3359 101.25 28.0547C101.25 27.7734 101.355 27.5273 101.566 27.3164C101.777 27.1055 102.047 27 102.375 27H105.68C106.008 27 106.277 27.1055 106.488 27.3164C106.699 27.5273 106.805 27.7734 106.805 28.0547C106.805 28.3359 106.699 28.582 106.488 28.793C106.277 29.0039 106.008 29.1094 105.68 29.1094H102.375ZM91.125 24.6094C90.7969 24.6094 90.5273 24.5039 90.3164 24.293C90.1055 24.082 90 23.8359 90 23.5547C90 23.2734 90.1055 23.0273 90.3164 22.8164C90.5273 22.6055 90.7969 22.5 91.125 22.5H94.4297C94.7578 22.5 95.0273 22.6055 95.2383 22.8164C95.4492 23.0273 95.5547 23.2734 95.5547 23.5547C95.5547 23.8359 95.4492 24.082 95.2383 24.293C95.0273 24.5039 94.7578 24.6094 94.4297 24.6094H91.125ZM102.375 24.6094C102.047 24.6094 101.777 24.5039 101.566 24.293C101.355 24.082 101.25 23.8359 101.25 23.5547C101.25 23.2734 101.355 23.0273 101.566 22.8164C101.777 22.6055 102.047 22.5 102.375 22.5H105.68C106.008 22.5 106.277 22.6055 106.488 22.8164C106.699 23.0273 106.805 23.2734 106.805 23.5547C106.805 23.8359 106.699 24.082 106.488 24.293C106.277 24.5039 106.008 24.6094 105.68 24.6094H102.375ZM91.125 20.1094C90.7969 20.1094 90.5273 20.0039 90.3164 19.793C90.1055 19.582 90 19.3359 90 19.0547C90 18.7734 90.1055 18.5273 90.3164 18.3164C90.5273 18.1055 90.7969 18 91.125 18H94.4297C94.7578 18 95.0273 18.1055 95.2383 18.3164C95.4492 18.5273 95.5547 18.7734 95.5547 19.0547C95.5547 19.3359 95.4492 19.582 95.2383 19.793C95.0273 20.0039 94.7578 20.1094 94.4297 20.1094H91.125ZM97.6641 20.1094C97.3828 20.1094 97.1602 20.0039 96.9961 19.793C96.832 19.582 96.75 19.3359 96.75 19.0547C96.75 18.7734 96.832 18.5273 96.9961 18.3164C97.1602 18.1055 97.3828 18 97.6641 18H99.1406C99.4219 18 99.6445 18.1055 99.8086 18.3164C99.9727 18.5273 100.055 18.7734 100.055 19.0547C100.055 19.3359 99.9727 19.582 99.8086 19.793C99.6445 20.0039 99.4219 20.1094 99.1406 20.1094H97.6641ZM102.375 20.1094C102.047 20.1094 101.777 20.0039 101.566 19.793C101.355 19.582 101.25 19.3359 101.25 19.0547C101.25 18.7734 101.355 18.5273 101.566 18.3164C101.777 18.1055 102.047 18 102.375 18H105.68C106.008 18 106.277 18.1055 106.488 18.3164C106.699 18.5273 106.805 18.7734 106.805 19.0547C106.805 19.3359 106.699 19.582 106.488 19.793C106.277 20.0039 106.008 20.1094 105.68 20.1094H102.375ZM91.125 15.6094C90.7969 15.6094 90.5273 15.5039 90.3164 15.293C90.1055 15.082 90 14.8359 90 14.5547C90 14.2734 90.1055 14.0273 90.3164 13.8164C90.5273 13.6055 90.7969 13.5 91.125 13.5H96.6797C97.0078 13.5 97.2773 13.6055 97.4883 13.8164C97.6992 14.0273 97.8047 14.2734 97.8047 14.5547C97.8047 14.8359 97.6992 15.082 97.4883 15.293C97.2773 15.5039 97.0078 15.6094 96.6797 15.6094H91.125ZM100.125 15.6094C99.7969 15.6094 99.5273 15.5039 99.3164 15.293C99.1055 15.082 99 14.8359 99 14.5547C99 14.2734 99.1055 14.0273 99.3164 13.8164C99.5273 13.6055 99.7969 13.5 100.125 13.5H105.68C106.008 13.5 106.277 13.6055 106.488 13.8164C106.699 14.0273 106.805 14.2734 106.805 14.5547C106.805 14.8359 106.699 15.082 106.488 15.293C106.277 15.5039 106.008 15.6094 105.68 15.6094H100.125ZM91.125 11.1094C90.7969 11.1094 90.5273 11.0039 90.3164 10.793C90.1055 10.582 90 10.3359 90 10.0547C90 9.77344 90.1055 9.52734 90.3164 9.31641C90.5273 9.10547 90.7969 9 91.125 9H94.4297C94.7578 9 95.0273 9.10547 95.2383 9.31641C95.4492 9.52734 95.5547 9.77344 95.5547 10.0547C95.5547 10.3359 95.4492 10.582 95.2383 10.793C95.0273 11.0039 94.7578 11.1094 94.4297 11.1094H91.125ZM100.125 11.1094C99.7969 11.1094 99.5273 11.0039 99.3164 10.793C99.1055 10.582 99 10.3359 99 10.0547C99 9.77344 99.1055 9.52734 99.3164 9.31641C99.5273 9.10547 99.7969 9 100.125 9H103.43C103.758 9 104.027 9.10547 104.238 9.31641C104.449 9.52734 104.555 9.77344 104.555 10.0547C104.555 10.3359 104.449 10.582 104.238 10.793C104.027 11.0039 103.758 11.1094 103.43 11.1094H100.125ZM111.516 29.1094C111.117 29.1094 110.801 29.0039 110.566 28.793C110.355 28.582 110.25 28.3359 110.25 28.0547C110.25 27.7734 110.355 27.5273 110.566 27.3164C110.801 27.1055 111.117 27 111.516 27H119.039C119.438 27 119.742 27.1055 119.953 27.3164C120.188 27.5273 120.305 27.7734 120.305 28.0547C120.305 28.3359 120.188 28.582 119.953 28.793C119.742 29.0039 119.438 29.1094 119.039 29.1094H111.516ZM109.125 24.6094C108.797 24.6094 108.527 24.5039 108.316 24.293C108.105 24.082 108 23.8359 108 23.5547C108 23.2734 108.105 23.0273 108.316 22.8164C108.527 22.6055 108.797 22.5 109.125 22.5H112.43C112.758 22.5 113.027 22.6055 113.238 22.8164C113.449 23.0273 113.555 23.2734 113.555 23.5547C113.555 23.8359 113.449 24.082 113.238 24.293C113.027 24.5039 112.758 24.6094 112.43 24.6094H109.125ZM109.266 20.1094C108.867 20.1094 108.551 20.0039 108.316 19.793C108.105 19.582 108 19.3359 108 19.0547C108 18.7734 108.105 18.5273 108.316 18.3164C108.551 18.1055 108.867 18 109.266 18H121.289C121.688 18 121.992 18.1055 122.203 18.3164C122.438 18.5273 122.555 18.7734 122.555 19.0547C122.555 19.3359 122.438 19.582 122.203 19.793C121.992 20.0039 121.688 20.1094 121.289 20.1094H109.266ZM109.125 15.6094C108.797 15.6094 108.527 15.5039 108.316 15.293C108.105 15.082 108 14.8359 108 14.5547C108 14.2734 108.105 14.0273 108.316 13.8164C108.527 13.6055 108.797 13.5 109.125 13.5H112.43C112.758 13.5 113.027 13.6055 113.238 13.8164C113.449 14.0273 113.555 14.2734 113.555 14.5547C113.555 14.8359 113.449 15.082 113.238 15.293C113.027 15.5039 112.758 15.6094 112.43 15.6094H109.125ZM118.125 15.6094C117.797 15.6094 117.527 15.5039 117.316 15.293C117.105 15.082 117 14.8359 117 14.5547C117 14.2734 117.105 14.0273 117.316 13.8164C117.527 13.6055 117.797 13.5 118.125 13.5H121.43C121.758 13.5 122.027 13.6055 122.238 13.8164C122.449 14.0273 122.555 14.2734 122.555 14.5547C122.555 14.8359 122.449 15.082 122.238 15.293C122.027 15.5039 121.758 15.6094 121.43 15.6094H118.125ZM111.516 11.1094C111.117 11.1094 110.801 11.0039 110.566 10.793C110.355 10.582 110.25 10.3359 110.25 10.0547C110.25 9.77344 110.355 9.52734 110.566 9.31641C110.801 9.10547 111.117 9 111.516 9H119.039C119.438 9 119.742 9.10547 119.953 9.31641C120.188 9.52734 120.305 9.77344 120.305 10.0547C120.305 10.3359 120.188 10.582 119.953 10.793C119.742 11.0039 119.438 11.1094 119.039 11.1094H111.516Z" fill="#EEEEEE"/>
</svg>
