<svg xmlns="http://www.w3.org/2000/svg" viewBox="0 0 128 128" fill="none">
    <path fill="#a9bacd" d="m 54.599609,0.00585938 c -1.715,0 -3.430468,0.37499998 -4.730468,1.12500002 L 4.7304688,27.189453 C 2.1304687,28.689453 0,32.380859 0,35.380859 V 87.5 c 0,1.5 0.530625,3.170156 1.390625,4.660156 0.86,1.48 2.0398438,2.779297 3.3398438,3.529297 L 49.869141,121.75 c 2.6,1.5 6.850937,1.5 9.460937,0 L 104.4707,95.689453 c 1.3,-0.75 2.47985,-2.049297 3.33985,-3.529297 0.86,-1.48 1.38867,-3.160156 1.38867,-4.660156 V 35.380859 c 0,-1.5 -0.52867,-3.170156 -1.38867,-4.660156 -0.86,-1.48 -2.03985,-2.78125 -3.33985,-3.53125 L 59.330078,1.1308594 c -1.3,-0.75000005 -3.015469,-1.12500002 -4.730469,-1.12500002 z m 0,25.03320262 c 12.95,0 25.029532,6.971407 31.519532,18.191407 l -15.75,9.11914 c -3.25,-5.62 -9.289532,-9.099609 -15.769532,-9.099609 -10.04,0 -18.199218,8.159219 -18.199218,18.199219 0,10.03 8.159218,18.201172 18.199218,18.201172 6.48,0 12.519532,-3.48961 15.769532,-9.09961 l 15.75,9.119141 c -6.49,11.2 -18.569532,18.169922 -31.519532,18.169922 -20.07,0 -36.40039,-16.330391 -36.40039,-36.400391 0,-20.07 16.33039,-36.40039 36.40039,-36.400391 z"/>
</svg>