<svg xmlns="http://www.w3.org/2000/svg" viewBox="0 0 128 128" fill="none">
    <path fill="#a9bacd" d="m 54.599609,0 c -1.715,0 -3.430468,0.375 -4.730468,1.125 L 4.730469,27.183594 C 2.130469,28.683594 0,32.375 0,35.375 v 52.119141 c 0,1.5 0.530625,3.170156 1.390625,4.660156 0.86,1.48 2.039844,2.779301 3.339844,3.529293 l 45.138672,26.06055 c 2.6,1.5 6.850937,1.5 9.460937,0 L 104.4707,95.68359 c 1.3,-0.749992 2.47985,-2.049293 3.33985,-3.529293 0.86,-1.48 1.38867,-3.160156 1.38867,-4.660156 V 35.375 c 0,-1.5 -0.52867,-3.170156 -1.38867,-4.660156 -0.86,-1.48 -2.03985,-2.78125 -3.33985,-3.53125 L 59.330078,1.125 C 58.030078,0.3749999 56.314609,0 54.599609,0 Z m 0,25.033203 c 0.267103,0 0.528602,0.03706 0.794922,0.04297 0.04449,6.38e-4 0.08832,-0.0086 0.132813,-0.0078 0.968917,0.01745 1.937713,0.07405 2.90625,0.169922 5.423928,0.536875 10.803717,2.31685 15.708984,5.507813 4.832153,3.07554 8.94852,7.293946 11.916016,12.388672 0.01218,0.01952 0.0269,0.03513 0.03906,0.05469 h -0.002 c 0.0071,0.01227 0.01633,0.02287 0.02344,0.03516 l -15.75,9.119141 c -0.0067,-0.01165 -0.01473,-0.02353 -0.02148,-0.03516 -2.77e-4,-4.77e-4 2.78e-4,-0.0015 0,-0.002 -0.92657,-1.532332 -1.988308,-2.86201 -3.148437,-3.996094 -3.349817,-3.202741 -7.856978,-5.066406 -12.59961,-5.066406 -6.079543,0 -11.469098,2.992563 -14.77539,7.582031 -1.883285,2.679512 -3.131705,6.019588 -3.41211,9.951172 -0.008,0.22113 -0.01172,0.442959 -0.01172,0.666015 0,0.697739 0.04033,1.386831 0.117187,2.064453 0.404965,3.338813 1.654866,6.276921 3.464844,8.707032 0.311422,0.421521 0.648356,0.82214 0.99414,1.214844 2.82123,3.174819 6.665671,5.290622 10.775391,5.992187 0.927987,0.146446 1.879019,0.222656 2.847656,0.222656 3.374586,0 6.629684,-0.947093 9.433594,-2.646484 2.356228,-1.489329 4.520795,-3.629465 6.314453,-6.5 l 15.75,9.121094 c -0.0047,0.0081 -0.01097,0.01536 -0.01563,0.02344 l 0.03711,0.02148 c -0.851032,1.468652 -1.797464,2.864639 -2.830079,4.181641 -6.734038,8.822301 -16.286073,13.276467 -26.003906,13.888677 -0.890114,0.0664 -1.785437,0.0996 -2.685547,0.0996 -0.824988,0 -1.618211,-0.11951 -2.429687,-0.17382 -0.340351,-0.0253 -0.678077,-0.0397 -1.017578,-0.0742 -1.807706,-0.17182 -3.573292,-0.46508 -5.294922,-0.89258 -3.794423,-0.9422 -7.383103,-2.409221 -10.605469,-4.439454 -6.398636,-3.93929 -11.661894,-9.900805 -14.585888,-17.64452 -1.481498,-3.80167 -2.339927,-7.91065 -2.453125,-12.203125 -0.01546,-0.333988 -0.02712,-0.669605 -0.03516,-1.007812 -0.08524,-13.770705 7.008928,-24.561749 16.927735,-30.69336 5.639192,-3.59026 12.328557,-5.671875 19.49414,-5.671875 z m 23.617188,26.044922 h 3 l -0.488281,4.710937 h 3.416015 l 0.501953,-4.710937 h 2.990235 l -0.488281,4.710937 h 2.708984 v 2.888672 h -3.007813 l -0.43164,4.160157 h 2.599609 v 2.90039 h -2.898437 l -0.533203,5.140625 h -3.048829 l 0.546875,-5.140625 h -3.384765 l -0.533203,5.140625 h -3.058594 l 0.546875,-5.140625 h -2.636719 v -2.90039 h 2.947266 l 0.441406,-4.160157 h -2.548828 v -2.888672 h 2.857422 z m 2.212891,7.599609 -0.431641,4.160157 h 3.396484 l 0.441407,-4.160157 z" />
</svg>