<svg width="64" height="64" viewBox="0 0 64 64" fill="none" xmlns="http://www.w3.org/2000/svg">
<path d="M32 64C38.329 64 44.5159 62.1232 49.7782 58.607C55.0406 55.0908 59.1421 50.0931 61.5641 44.2459C63.9861 38.3986 64.6199 31.9645 63.3851 25.7571C62.1504 19.5497 59.1027 13.8479 54.6274 9.37259C50.1521 4.89732 44.4503 1.84961 38.2429 0.614885C32.0355 -0.619842 25.6014 0.0138659 19.7541 2.43587C13.9069 4.85788 8.90917 8.9594 5.39297 14.2218C1.87677 19.4841 -1.1066e-06 25.671 0 32L32 32V64Z" fill="#11C6F8"/>
<path d="M56.1526 52.9917C58.9093 49.8199 61.0143 46.1362 62.3473 42.151C63.6803 38.1657 64.2154 33.9569 63.9218 29.7648C63.6283 25.5728 62.512 21.4796 60.6366 17.719C58.7612 13.9584 56.1634 10.604 52.9916 7.84735C49.8199 5.09069 46.1362 2.98574 42.1509 1.65271C38.1656 0.31967 33.9568 -0.215357 29.7648 0.0781744C25.5728 0.371706 21.4796 1.48805 17.719 3.36346C13.9584 5.23887 10.604 7.83663 7.84731 11.0084L32 32L56.1526 52.9917Z" fill="#EA6EE2"/>
<path d="M1.39876e-06 64C4.2023 64 8.36345 63.1723 12.2459 61.5642C16.1283 59.956 19.6559 57.5989 22.6274 54.6274C25.5989 51.656 27.956 48.1283 29.5641 44.2459C31.1723 40.3635 32 36.2023 32 32L0 32L1.39876e-06 64Z" fill="#FFE942"/>
</svg>
